<?xml version="1.0" encoding="UTF-8"?>
<svg id="_Слой_1" data-name="Слой_1" xmlns="http://www.w3.org/2000/svg" version="1.1" viewBox="0 0 1000 133.5">
  <!-- Generator: Adobe Illustrator 29.1.0, SVG Export Plug-In . SVG Version: 2.1.0 Build 142)  -->
  <defs>
    <style>
      .st0 {
        fill: #060606;
      }

      .st1 {
        fill: #e8b240;
      }
    </style>
  </defs>
  <path class="st0" d="M486.85.61c9.12.96,17.92,4.76,18.19,15,.17,6.48-17.98,58.13-21.97,65.01-5.43,9.35-18.93,14.84-28.81,18.28l18.62,34.13h-46.04c-2.91,0-3.75-4.83-4.83-6.55-2.27-3.61-15.96-26.38-17.41-27.08s-24.78-1.24-25.75-.39l-11.5,34.02h-41.38c10.52-35.69,24.94-70.19,36.79-105.48l-6.79-26.94h130.87ZM457.36,36.82h-55.35l-9.83,25.86h56.9l8.28-25.86Z"/>
  <path class="st0" d="M878.95,61.64l-25.36,71.39h-41.38c1-4.88,2.95-10.69,4.88-15.26,9.27-21.88,17.45-46.47,24.59-69.59,4.62-14.99,10.95-19.75,4.83-36.83-.52-1.46-1.85-1.5-2.14-2.24-1-2.52-1.92-5.77-2.16-8.5h60.52l31.02,68.02,2.92-2.08L960.67.61h39.83c-.41,7.71-4.28,15.33-6.78,22.7-.87,2.58-1.71,5.03-2.43,7.09-11.97,34.22-24.42,68.3-36.45,102.49l-44.36-.36"/>
  <path class="st0" d="M13.65,98l91.27-1.14c.99-.35,3.7-10.46,4.58-12.36s1,2.75.22-.09H38.85c-5.56,0-13.02-4.66-14.51-10.31-2.04-7.72,3.11-17,6.16-24.6.3-.75,2.17-7.12,3-9,4.05-9.17,2.73-15.87,10.19-25.75C48.08,8.93,63.89.61,70.92.61h109.14c1.14,3.33-1.66,5.16-1.96,5.98-2.29,6.31-3.15,11.56-6.5,17.12-2.83,4.69-6.4,8.76-10.39,12.4-28.17,1.6-56.71.34-85.01.65-1.54,4.01-3.9,8.03-3.74,12.48h69.83c1.37,0,9.02,3.82,10.27,5.25,5.18,5.97,3.53,12.43,1.65,19.08-6.49,22.87-16.74,59.47-46.06,59.47H.06"/>
  <path class="st0" d="M671.51.61c-1.01,8.96-9.42,32.92-18.57,35.75l-90.98.58-20.81,59.88h55.87c.26-3.6,3.02-6.96,3.68-10.28,1.99-9.9-5.87-19.2-5.75-29.03h56.9l-27.07,75.35-111.09.22c-13.52-.88-22.3-4.46-20.91-19.97l32.62-91.54c7.57-10.7,18.78-20.95,32.82-20.95h113.28Z"/>
  <path class="st0" d="M305.28.61l8.79,132.42h-43.45c-.11,0-1.55-1.44-1.55-1.55v-17.07h-62.59c-3.61,0-3.6,3.12-5.21,5.12-3.56,4.44-6.78,9.05-10.31,13.5h-45c1.32-3.52,5.25-6.07,7.67-9.4,18.44-25.42,38.66-50.17,57.46-74.16,5.71-7.29,10.89-15.06,17.09-21.98,1.74-3.77-1.37-12.62-2.64-16.78-.21-.69-1.68-.67-1.93-1.55-.63-2.16-.29-6.05-1.09-8.55h82.76ZM234.93,78.2h31.04c.41-11.76-.96-23.55-1.55-35.22l-2.06-2.03-26.43,33.59-.99,3.66Z"/>
  <path class="st1" d="M816.99,33.36c-4.77,14.66-11.42,31.76-16.9,46.69-9.1,24.78-12.41,50.14-44.28,52.97-21.95,1.95-63.89,1.92-85.89.05-13.44-1.14-22.74-6.93-19.68-21.83,13.47-27.71,19.43-64.28,32.95-91.2,5.81-11.58,20.87-18.49,33.29-19.47,27.57,2.47,60.82-3.3,87.71.31,22.25,2.98,18.03,16.42,12.8,32.48ZM696.54,101.8c24.95,9.37,57.43-.75,73.79-21.52,7.61-9.66,4.23-18.87,1.02-30.01-1.43-4.94-14.74-38.43-17.05-39.91-1.48-.95-2.29.25-3.45.78-9,4.11-31.47,22.42-38.35,29.95-8.09,8.86-19.03,24.54-20.3,36.59-.96,9.11,2.08,15.7,4.34,24.12ZM776,80.28l-8.74,8.32c-6.62,18.72-23.76,30.71-44.01,24.26-2.93-.93-6.25-3.86-9.03-4.42-3.61-.73-8.82-.37-12.7-.75,24.79,30.55,76.76,13.78,74.48-27.4Z"/>
</svg>